<svg xmlns="http://www.w3.org/2000/svg" width="241" height="204" fill="none" viewBox="0 0 241 204">
  <g clip-path="url(#clip0_291_868)">
    <path fill="#F0F0F0" d="M128.897 28.654c7.995-5.91 19.251-8.176 28.059-3.565a45.808 45.808 0 00-22.79 21.68c-1.839 3.744-3.494 8.1-7.287 9.83-2.361 1.077-5.146.87-7.59 0s-4.618-2.347-6.762-3.808l-.643-.078c3.815-9.186 9.018-18.148 17.013-24.059z"/>
    <path fill="#fff" d="M156.884 25.285a39.123 39.123 0 00-22.672 8.129 16.858 16.858 0 00-3.694 3.778 9.68 9.68 0 00-1.594 4.836c-.116 1.607-.05 3.264-.554 4.815a5.915 5.915 0 01-3.304 3.542c-1.895.857-3.985.982-6.033 1.032-2.274.057-4.637.08-6.704 1.15-.251.13-.438-.266-.187-.396 3.597-1.864 7.802-.648 11.583-1.757 1.764-.518 3.384-1.57 4.092-3.333.62-1.54.552-3.25.656-4.878a10.33 10.33 0 011.383-4.786 15.569 15.569 0 013.535-3.907 37.965 37.965 0 0110.276-5.944 39.81 39.81 0 0113.256-2.718c.281-.009.241.428-.039.437z"/>
    <path fill="#fff" d="M136.215 31.672a5.882 5.882 0 011.38-7.485c.219-.177.505.155.285.333a5.444 5.444 0 00-1.269 6.965c.142.244-.255.43-.396.187zM128.876 41.205c2.743.767 5.673.471 8.208-.828.251-.129.438.268.187.396a11.767 11.767 0 01-8.543.844c-.272-.076-.122-.489.148-.412zM147.878 26.49a3.324 3.324 0 002.286 2.176c.273.073.123.485-.148.412a3.72 3.72 0 01-2.534-2.4.228.228 0 01-.006-.167.23.23 0 01.11-.125.22.22 0 01.292.105z"/>
    <path fill="#F0F0F0" d="M163.939 58.036c-.172-.041-.343-.082-.518-.12a43.745 43.745 0 00-7.024-1.048 18.873 18.873 0 00-.551-.038 46.118 46.118 0 00-16.851 2.188 44.846 44.846 0 00-6.296 2.599c-2.803 1.415-5.729 3.173-8.747 3.567-.314.045-.631.07-.948.075L111.84 53.503c-.012-.04-.027-.076-.039-.116l-.468-.449c.101-.06.208-.12.309-.18.058-.036.119-.068.177-.103.04-.023.08-.045.115-.068a.475.475 0 01.037-.02c.034-.023.069-.04.101-.06.591-.338 1.187-.673 1.785-1.004.003-.003.003-.003.008-.003 4.567-2.511 9.385-4.663 14.375-6.015.15-.04.303-.084.458-.12a42.74 42.74 0 016.87-1.23 37.769 37.769 0 013.823-.159c3.297.036 6.567.591 9.692 1.645 6.228 2.1 11.716 6.171 14.637 11.97.074.148.147.294.219.445z"/>
    <path fill="#fff" d="M163.764 58.151a39.122 39.122 0 00-22.993-7.17 16.847 16.847 0 00-5.222.79 9.666 9.666 0 00-4.182 2.902c-1.06 1.213-2.004 2.576-3.34 3.51a5.915 5.915 0 01-4.769.837c-2.028-.457-3.772-1.617-5.438-2.81-1.849-1.325-3.749-2.73-6.045-3.121-.278-.048-.188-.477.09-.43 3.994.68 6.619 4.184 10.306 5.577 1.72.65 3.646.785 5.272-.195 1.421-.857 2.396-2.262 3.458-3.5a10.317 10.317 0 013.984-2.989 15.566 15.566 0 015.172-.989c3.979-.139 7.954.349 11.781 1.446a39.827 39.827 0 0112.22 5.817c.229.162-.066.487-.294.325z"/>
    <path fill="#fff" d="M143.418 50.797a5.879 5.879 0 015.605-5.144c.281-.01.31.427.028.437a5.436 5.436 0 00-5.204 4.796c-.033.28-.462.19-.429-.089zM131.823 53.987a11.32 11.32 0 007.052 4.285c.278.048.188.477-.089.429a11.771 11.771 0 01-7.329-4.474c-.171-.225.197-.464.366-.24zM155.847 53.687a3.335 3.335 0 00.517 3.115c.173.223-.194.462-.366.24a3.72 3.72 0 01-.58-3.444.225.225 0 01.259-.17.217.217 0 01.138.095.217.217 0 01.032.164z"/>
    <path fill="#3F3D56" d="M126.787 37.447h-.865v-23.72a13.744 13.744 0 00-4.017-9.706 13.715 13.715 0 00-9.7-4.021H61.992a13.708 13.708 0 00-9.7 4.02 13.73 13.73 0 00-4.017 9.708v130.124c0 3.641 1.445 7.133 4.018 9.708a13.713 13.713 0 009.7 4.02h50.212c3.638 0 7.127-1.446 9.7-4.02a13.737 13.737 0 004.017-9.707V54.331h.865V37.447z"/>
    <path fill="#fff" d="M112.759 3.571h-6.555a4.87 4.87 0 01-4.506 6.71H72.932a4.863 4.863 0 01-4.039-2.153 4.872 4.872 0 01-.467-4.557h-6.122a10.24 10.24 0 00-7.243 3.003c-1.921 1.923-3 4.53-3 7.25v129.933a10.26 10.26 0 003 7.249 10.239 10.239 0 007.243 3.003h50.455a10.242 10.242 0 009.464-6.329c.515-1.244.78-2.577.78-3.923V13.823c0-2.719-1.08-5.326-3.001-7.249a10.238 10.238 0 00-7.243-3.003z"/>
    <path fill="#F0F0F0" d="M88.5 112.269a28.235 28.235 0 01-20.007-8.283 28.28 28.28 0 01-8.277-20.024 28.284 28.284 0 014.16-14.794 28.253 28.253 0 0111.28-10.429 28.326 28.326 0 0121.964-1.578 28.293 28.293 0 0115.152 12.264 28.327 28.327 0 01-5.978 36.124 28.272 28.272 0 01-18.293 6.72zm0-55.504a26.859 26.859 0 00-12.34 2.963 27.182 27.182 0 00-13.815 16.835 27.22 27.22 0 002.963 21.581 27.185 27.185 0 0017.839 12.483 27.168 27.168 0 0021.271-4.624 26.94 26.94 0 004.051-3.597 27.202 27.202 0 00-5.092-41.214 27.149 27.149 0 00-14.876-4.427z"/>
    <path fill="#FFB6B6" d="M27.212 58.84a5.35 5.35 0 014.637 4.591 5.36 5.36 0 01-.192 2.314l9.397 7.834-3.364 6.876-13.116-11.25a5.382 5.382 0 01-3.281-6.355 5.385 5.385 0 015.919-4.01z"/>
    <path fill="#E4E4E4" d="M114.981 91.51c-.188-2.027-.967-5.672-1.628-7.02-2.033-5.323-15.165-9.699-16.929-10.263l-.447-4.977-18.247-1.965-2.314 6.365-6.545 2.457a3.213 3.213 0 00-1.915 1.965l-5.871 1.698-5.794 1.676-20.129-14.194-.95.622-6.352 4.148-.98.64L52.928 96.18l9.676-2.272 7.277-1.714.62 2.524-1.607 8.866a27.709 27.709 0 0035.849 2.868l4.134-3.671a27.717 27.717 0 006.215-10.927l-.111-.344z"/>
    <path fill="#FFB6B6" d="M92.587 63.215c6.888-2.283 10.623-9.721 8.342-16.615-2.28-6.893-9.713-10.631-16.6-8.349-6.889 2.283-10.624 9.721-8.343 16.614 2.28 6.894 9.713 10.632 16.6 8.35z"/>
    <path fill="#2F2E41" d="M78.08 35.744a8.867 8.867 0 015.37-3.579 8.46 8.46 0 016.242 1.146c2.016-.813 4.19-1.352 6.325-1.078s4.228 1.468 5.216 3.435c.208.509.46 1 .754 1.464.871 1.163 2.488 1.314 3.917 1.37l-2.167 1.264 2.16 1.007-2.94 1.124c2.281 2.006 2.832 5.577 1.969 8.57-.818 2.835-2.692 5.22-4.786 7.264-.408-1.525.041-3.177.34-4.755.316-1.668.367-3.617-.8-4.794-.787-.794-1.94-1.034-3.03-1.227a146.924 146.924 0 00-16.596-1.972 4.692 4.692 0 00-2.212.226c-1.354.602-1.898 2.256-2.29 3.723a29.542 29.542 0 01.446-7.698c.372-1.94.956-3.882 2.082-5.49z"/>
    <path fill="#064A95" d="M95.156 125.606H79.627a2.031 2.031 0 01-2.033-2.035 2.038 2.038 0 012.033-2.035h15.53a2.035 2.035 0 010 4.07zM44.2 16.697H1.484A1.485 1.485 0 01.002 15.21a1.487 1.487 0 011.483-1.486H44.2a1.485 1.485 0 011.05 2.538 1.485 1.485 0 01-1.05.435zM68.861 26.193H1.486a1.485 1.485 0 01-1.05-2.538 1.485 1.485 0 011.05-.435H68.86a1.485 1.485 0 011.486 1.486 1.487 1.487 0 01-1.486 1.487z"/>
    <path fill="#CACACA" d="M55.914 35.14H1.486a1.485 1.485 0 01-1.05-2.538 1.485 1.485 0 011.05-.436h54.428a1.485 1.485 0 011.485 1.487 1.487 1.487 0 01-1.485 1.486zM32.177 44.053H1.486A1.485 1.485 0 010 42.568a1.487 1.487 0 011.486-1.487h30.691a1.485 1.485 0 011.05 2.538 1.485 1.485 0 01-1.05.435zM49.132 52.966H1.486a1.485 1.485 0 01-1.484-1.487 1.487 1.487 0 011.484-1.487h47.646a1.485 1.485 0 011.483 1.487 1.487 1.487 0 01-1.483 1.487z"/>
    <path fill="#9F616A" d="M183.412 198.419h-3.828l-1.821-14.778h5.65l-.001 14.778z"/>
    <path fill="#2F2E41" d="M184.919 203.721h-14.617v-.185a5.69 5.69 0 015.689-5.694h.001l2.67-2.027 4.981 2.028h1.276v5.878z"/>
    <path fill="#9F616A" d="M181.182 128.965l-1.689-20.603-1.326-7.733 7.426-1.642 2.465 10.587-2.147 19.962a3.44 3.44 0 01-3.074 5.586 3.435 3.435 0 01-1.655-6.157zM163.077 198.419h-3.829l-1.821-14.778h5.65v14.778z"/>
    <path fill="#2F2E41" d="M156.95 133.635l-1.697 2.938s-1.865.51-1.256 6.594c.61 6.083.636 42.127 3.586 46.563l.534 3.808 5.571.533.14-3.379 6.643-46.951s3.912 46.091 7.148 47.218l1.169 3.84 5.105.003-.301-4.526.329-57.117-26.971.476z"/>
    <path fill="#E4E4E4" d="M155.084 136.349l-.117-.03c3.502-13.112 2.492-30.092.019-48.324v-.076l8.941-8.196h7.765l7.697 4.97c4.976 2.49 6.107 7.764 6.118 7.817l.008.037-3.049 10.651 2.296 30.803.003.035-.013.034c-.743 1.886-2.735 1.617-5.042 1.306-2.302-.311-10.787 2.53-13.389 2.53-5.084 0-10.874-1.464-11.237-1.557z"/>
    <path fill="#E4E4E4" d="M177.777 88.845l3.336-1.452 4.394 5.392 3.563 17.279-12.202-1.85.909-19.37z"/>
    <path fill="#9F616A" d="M126.473 120.708l15.248-13.944 5.299-5.783 5.842 4.874-6.858 8.43-17.089 10.516a3.437 3.437 0 01-4.805 2.336 3.44 3.44 0 01.353-6.367 3.432 3.432 0 012.009-.062h.001z"/>
    <path fill="#E4E4E4" d="M141.389 106.916l4.223-5.489c.035-.079 3.539-7.915 6.576-11.32 3.116-3.492 5.569-1.706 5.593-1.687l.061.046.17 12.898-11.694 13.984-4.929-8.432z"/>
    <path fill="#9F616A" d="M174.065 72.003a7.118 7.118 0 10-14.051-2.282 7.118 7.118 0 1014.051 2.282z"/>
    <path fill="#2F2E41" d="M160.532 69.804s-.057-2.505-.373-3.613-.949-2.058-.633-2.058c.317 0 .475-.791.475-.791s.316-.158.474 0c.159.158.317-1.108.317-1.108s.158-.475.316-.158c.158.316.158.158.316-.317.159-.475.95-.791.95-.791s3.005.158 3.479-.475c.475-.634 5.853-.159 6.96.633 1.107.791 6.01 3.64 5.22 6.015-.791 2.374-3.068 7.842-3.638 8.39-.903.866-1.527 1.179-5.796 2.029-.835.166-5.099-2.563-5.099-3.038 0-.475.514-1.98-.313-2.187-1.249-.313-1.389 1.268-1.706.793-.316-.475-.949-3.324-.949-3.324zM164.583 203.721h-14.616v-.185a5.696 5.696 0 015.689-5.694l2.67-2.027 4.981 2.028h1.276v5.878z"/>
    <path fill="#CACACA" d="M240.56 204H1.23a.438.438 0 01-.44-.44.442.442 0 01.44-.441h239.33a.44.44 0 010 .881z"/>
  </g>
  <defs>
    <clipPath id="clip0_291_868">
      <path fill="#fff" d="M0 0h241v204H0z"/>
    </clipPath>
  </defs>
</svg>
