<svg xmlns="http://www.w3.org/2000/svg" width="55" height="55" fill="none" viewBox="0 0 55 55">
  <path fill="#E6E6E6" d="M47.99 44.527A26.669 26.669 0 10.813 27.504 26.495 26.495 0 007.01 44.527l-.038.032c.133.16.286.298.423.456.171.197.356.381.534.572.533.58 1.082 1.136 1.658 1.658.175.16.356.31.534.462.61.526 1.237 1.025 1.887 1.49.084.058.16.132.244.191v-.023a26.499 26.499 0 0030.5 0v.023c.084-.059.158-.133.244-.19a27.526 27.526 0 001.887-1.491c.177-.153.358-.303.534-.462a26.717 26.717 0 001.658-1.658c.178-.19.36-.376.534-.572.135-.158.29-.295.423-.457l-.042-.03zM27.5 12.254a8.578 8.578 0 110 17.157 8.578 8.578 0 010-17.157zM12.263 44.527a9.523 9.523 0 019.518-9.398H33.22a9.523 9.523 0 019.518 9.398 22.76 22.76 0 01-30.474 0z"/>
</svg>
