<svg xmlns="http://www.w3.org/2000/svg" width="282" height="169" fill="none" viewBox="0 0 282 169">
  <g clip-path="url(#clip0_291_252)">
    <path fill="#064A95" d="M215.906 167.089c-3.61-3.058-5.803-7.889-5.228-12.592.575-4.702 4.137-9.026 8.758-10.024 4.62-.999 9.887 1.766 11.291 6.29.772-8.723 1.662-17.811 6.289-25.239 4.189-6.726 11.445-11.539 19.308-12.4 7.864-.861 16.143 2.391 21.047 8.612 4.904 6.222 6.105 15.266 2.67 22.409-2.53 5.262-7.192 9.178-12.076 12.364a77.79 77.79 0 01-53.306 11.689l1.247-1.109z"/>
    <path fill="#fff" d="M269.595 115.695a127.617 127.617 0 00-17.771 17.689 128.232 128.232 0 00-20.016 33.529c-.361.885 1.073 1.271 1.43.395a127.462 127.462 0 0137.406-50.562c.74-.604-.315-1.651-1.049-1.051z"/>
    <path fill="#064A95" d="M90.78 166.258c4.96-4.2 7.971-10.835 7.181-17.294-.79-6.46-5.682-12.398-12.028-13.77-6.347-1.371-13.58 2.426-15.508 8.64-1.061-11.981-2.284-24.463-8.638-34.666-5.754-9.238-15.72-15.849-26.52-17.031-10.801-1.183-22.173 3.284-28.909 11.829-6.736 8.545-8.385 20.968-3.667 30.779 3.475 7.227 9.878 12.605 16.587 16.981 21.402 13.96 47.952 19.782 73.215 16.055"/>
    <path fill="#fff" d="M17.039 95.668a175.336 175.336 0 0124.409 24.296 178.097 178.097 0 0119.249 28.557 177.5 177.5 0 018.243 17.495c.495 1.216-1.475 1.746-1.965.543a174.39 174.39 0 00-15.885-30.128 175.302 175.302 0 00-21.305-26.383 174.733 174.733 0 00-14.187-12.936c-1.017-.83.432-2.267 1.44-1.444z"/>
    <path fill="#F2F2F2" d="M202.425 168.63H84.115V46.95C84.114 21.062 105.125 0 130.951 0h24.635c25.826 0 46.838 21.062 46.838 46.95v121.68z"/>
    <path fill="#CCC" d="M177.789 168.63H84.113V46.95a46.662 46.662 0 019.596-28.471 46.877 46.877 0 019.969-9.699c.214-.156.428-.31.646-.462a46.688 46.688 0 0110.852-5.59A46.605 46.605 0 01125.259.346c.214-.029.433-.052.651-.075a47.31 47.31 0 0110.083 0c.218.023.437.046.653.076a46.588 46.588 0 0110.081 2.383 46.573 46.573 0 0111.384 5.966 47.345 47.345 0 015.959 5.057 46.954 46.954 0 014.124 4.728 46.662 46.662 0 019.595 28.47v121.68z"/>
    <path fill="#064A95" d="M170.173 114.207a5.193 5.193 0 005.186-5.199 5.192 5.192 0 00-5.186-5.198 5.192 5.192 0 00-5.187 5.198 5.193 5.193 0 005.187 5.199z"/>
    <path fill="#FFB8B8" d="M192.732 164.986h-3.974l-1.891-15.365h5.865v15.365z"/>
    <path fill="#2F2E41" d="M185.919 163.848h7.664v4.837h-12.489a4.85 4.85 0 011.413-3.421 4.82 4.82 0 013.412-1.416z"/>
    <path fill="#FFB8B8" d="M212.504 164.986h-3.974l-1.89-15.365h5.865l-.001 15.365z"/>
    <path fill="#2F2E41" d="M205.692 163.848h7.663v4.837h-12.489c0-.636.125-1.265.368-1.851a4.826 4.826 0 014.458-2.986z"/>
    <path fill="#FFB8B8" d="M172.797 110.039a3.5 3.5 0 01.25-4.247 3.494 3.494 0 011.212-.901l13.509-37.322 6.647 3.637-15.424 35.666a3.516 3.516 0 01-1.693 4.341 3.499 3.499 0 01-4.501-1.174zM210.474 117.051a3.496 3.496 0 01-.938-5.269l-4.184-39.48 7.564.346 1.739 38.834a3.513 3.513 0 01-1.727 5.976c-.84.17-1.713.025-2.454-.407zM198.406 60.656c4.397 0 7.962-3.573 7.962-7.98 0-4.408-3.565-7.98-7.962-7.98-4.396 0-7.961 3.572-7.961 7.98 0 4.407 3.565 7.98 7.961 7.98z"/>
    <path fill="#064A95" d="M210.423 108.072h-24.001l.029-.187c.043-.28 4.277-28.086 1.154-37.182a3.845 3.845 0 011.968-4.739c4.464-2.107 13.032-4.701 20.265 1.596a9.198 9.198 0 013.066 7.602l-2.481 32.91z"/>
    <path fill="#064A95" d="M191.032 83.909l-10.805-2.198 5.065-12.031a4.548 4.548 0 012.09-2.773 4.529 4.529 0 016.205 1.606 4.557 4.557 0 01.491 3.44l-3.046 11.956zM204.871 87.99l-.649-14.927c-.493-2.806 1.11-5.459 3.574-5.893 2.465-.432 4.873 1.514 5.367 4.341l2.442 13.948-10.734 2.53z"/>
    <path fill="#2F2E41" d="M209.625 106.285c3.862 14.744 4.283 33.489 3.241 53.936l-5.186-.65-9.4-38.99-5.186 39.64-5.835-.325c-1.743-21.454-3.44-39.872-.648-51.986l23.014-1.625zM203.652 58.843c-1.485 1.586-4.243.734-4.436-1.432a2.512 2.512 0 01.003-.505c.1-.96.653-1.831.52-2.845a1.49 1.49 0 00-.272-.698c-1.183-1.588-3.962.71-5.079-.727-.685-.882.121-2.27-.405-3.256-.694-1.301-2.748-.66-4.037-1.372-1.433-.792-1.348-2.997-.404-4.338 1.151-1.636 3.169-2.508 5.161-2.634 1.993-.126 3.972.414 5.832 1.14 2.114.826 4.21 1.968 5.511 3.83 1.582 2.266 1.734 5.312.943 7.962-.481 1.611-2.124 3.58-3.337 4.875z"/>
    <path fill="#3F3D56" d="M272.27 168.839H32.961a.385.385 0 01-.272-.66.391.391 0 01.272-.114H272.27a.39.39 0 01.385.387.386.386 0 01-.385.387z"/>
    <path fill="#fff" d="M152.02 133.377h-42.138a2.092 2.092 0 01-1.483-.606 2.108 2.108 0 01-.624-1.479v-94.28a2.107 2.107 0 01.624-1.479c.395-.39.928-.608 1.483-.605h42.138a2.094 2.094 0 012.107 2.084v94.28a2.094 2.094 0 01-2.107 2.085z"/>
    <path fill="#CCC" d="M154.127 65.435h-46.352v.65h46.352v-.65zM154.289 102.51h-46.351v.65h46.351v-.65z"/>
    <path fill="#CCC" d="M123.011 34.928h-.649V133.7h.649V34.928zM139.218 34.928h-.649V133.7h.649V34.928z"/>
  </g>
  <defs>
    <clipPath id="clip0_291_252">
      <path fill="#fff" d="M0 0h282v169H0z"/>
    </clipPath>
  </defs>
</svg>
