<svg xmlns="http://www.w3.org/2000/svg" width="267" height="179" fill="none" viewBox="0 0 267 179">
  <g clip-path="url(#a)">
    <path fill="#E5E5E5" d="M267 95.136c0 36.206-22.943 67.056-55.079 78.794a82.926 82.926 0 0 1-15.072 3.957 84.393 84.393 0 0 1-42.105-3.825c-32.339-11.642-55.45-42.595-55.435-78.944 0-46.298 37.54-83.846 83.846-83.846a83.466 83.466 0 0 1 48.785 15.654C253.168 42.14 267 67.021 267 95.136Z"/>
    <path fill="#2F2E41" d="M211.921 173.93a82.926 82.926 0 0 1-15.072 3.957 84.393 84.393 0 0 1-42.105-3.825l3.872-15.54.233-.933 7.902.03 39.697.143.508 1.502 4.965 14.666Z"/>
    <path fill="#E6E6E6" d="M72.832 0H0v82.43h72.832V0Z"/>
    <path fill="#fff" d="M71.406 1.744H1.299v78.942h70.107V1.744Z"/>
    <path fill="#E6E6E6" d="M36.416 77.879a3.93 3.93 0 1 0-.001-7.86 3.93 3.93 0 0 0 0 7.86ZM35.752 29.688H13.181v2.31h22.571v-2.31Z"/>
    <path fill="#064A95" d="M47.247 36.608H13.181v2.31h34.066v-2.31Z"/>
    <path fill="#E6E6E6" d="M43.903 43.573H13.181v2.31h30.722v-2.31Z"/>
    <path fill="#064A95" d="M60.623 50.353H13.18v2.31h47.442v-2.31Z"/>
    <path fill="#E6E6E6" d="M52.338 56.81H13.674v2.31h38.664v-2.31Z"/>
    <path fill="#9F616A" d="M103.564 134.13c.277.284.531.59.76.915l35.598-.872 4.153-7.59 12.272 4.772-6.047 14.152a5.74 5.74 0 0 1-5.971 3.446l-40.22-4.86a7.541 7.541 0 0 1-8.191 2.514 7.542 7.542 0 0 1-4.15-11.126 7.538 7.538 0 0 1 11.795-1.353l.001.002Z"/>
    <path fill="#064A95" d="m151.478 90.787 16.66-5.46 4.893-6.713 23.811 1.41 3.496 7.832 12.696 6.001-1.951 36.246-3.338 33.921c-17.165-8.891-49.199-2.113-49.48-2.003l-6.787-71.234Z"/>
    <path fill="#064A95" d="m155.039 139.847-16.945-6.781.072-.302c.073-.305 7.285-30.449 8.242-35.294.998-5.046 4.643-6.442 4.797-6.499l.113-.041 6.707 2.041 2.945 23.147-5.931 23.729Z"/>
    <path fill="#9F616A" d="M191.627 162.532a7.62 7.62 0 0 1 1.189.066l23.565-26.703-2.741-8.205 11.842-5.756 6.264 14.057a5.747 5.747 0 0 1-1.533 6.722l-30.909 26.194a7.543 7.543 0 0 1-3.727 7.717 7.533 7.533 0 0 1-10.977-4.522 7.53 7.53 0 0 1 .13-4.486 7.533 7.533 0 0 1 6.897-5.084Z"/>
    <path fill="#064A95" d="m214.5 138.495-9.83-23.128 3.834-16.11 4.131-5.22a2.382 2.382 0 0 1 1.912.018c1.524.613 2.82 2.493 3.856 5.587l9.212 26.247-13.115 12.606Z"/>
    <path fill="#2F2E41" d="M163.499 70.044V52.608a23.364 23.364 0 0 1 32.227-21.693 23.356 23.356 0 0 1 12.684 12.603 23.39 23.39 0 0 1 1.808 8.935v17.591a3.144 3.144 0 0 1-3.138 3.139h-40.443a3.141 3.141 0 0 1-3.138-3.139Z"/>
    <path fill="#9F616A" d="M182.058 72.776c9.459 0 17.126-7.669 17.126-17.13 0-9.46-7.667-17.13-17.126-17.13-9.458 0-17.126 7.67-17.126 17.13 0 9.461 7.668 17.13 17.126 17.13Z"/>
    <path fill="#2F2E41" d="M157.973 54.003a18.498 18.498 0 0 1 18.478-18.482h3.487a18.504 18.504 0 0 1 18.478 18.482v.349h-7.368l-2.513-7.04-.503 7.04h-3.807l-1.268-3.552-.254 3.552h-24.73v-.35Z"/>
    <path fill="#2F2E41" d="M180.373 75.143a3.096 3.096 0 0 1-.246-3.283c3.695-7.028 8.868-20.017 2.002-28.026l-.493-.575h19.934v29.934l-18.108 3.196a3.123 3.123 0 0 1-3.088-1.245h-.001Z"/>
    <path fill="#064A95" d="M36.352 6.42a8.356 8.356 0 0 0-8.196 9.989A8.36 8.36 0 0 0 39.55 22.5a8.358 8.358 0 0 0 5.159-7.722 8.361 8.361 0 0 0-8.357-8.36Zm0 2.507a2.506 2.506 0 1 1 0 5.013 2.506 2.506 0 0 1 0-5.013Zm0 12.072a6.087 6.087 0 0 1-5.014-2.676c.04-1.672 3.343-2.592 5.014-2.592 1.672 0 4.974.92 5.015 2.592a6.099 6.099 0 0 1-5.015 2.676Z"/>
    <path fill="#3F3D56" d="M36.45 75.455c3.442-6.31 11.69-10.307 18.436-6.705 3.037 1.621 5.451 4.489 6.217 7.878.89 3.938-.984 7.692-2.919 11-1.05 1.795-2.2 3.554-3.069 5.448-.9 1.961-1.543 4.228-.865 6.361.61 1.922 2.139 3.32 3.813 4.348a28.387 28.387 0 0 0 5.86 2.617 34.472 34.472 0 0 0 13.08 1.693 35.777 35.777 0 0 0 6.52-1.054c2.272-.58 4.502-1.314 6.778-1.881 3.8-.944 8.133-1.413 11.736.483 3.501 1.843 5.067 5.698 5.552 9.447.895 6.924-1.85 14.11-6.806 18.959-2.377 2.326-5.37 4.248-8.628 5.034-2.844.687-6.495.643-8.758-1.484-2.525-2.372-1.93-6.177.075-8.681 2.56-3.194 6.896-3.961 10.766-4.039 4.402-.088 8.8.567 13.2.16a20.3 20.3 0 0 0 6.242-1.506 15.821 15.821 0 0 0 4.704-3.184c2.717-2.64 4.548-6.156 5.459-9.812 1.097-4.397.858-9.017.007-13.433a60.62 60.62 0 0 0-1.75-6.737c-.294-.932-1.767-.533-1.471.406 2.623 8.316 4.085 17.932-.982 25.654a15.274 15.274 0 0 1-9.132 6.575c-4.384 1.09-8.985.551-13.443.389-4.238-.154-8.892.012-12.526 2.481-2.98 2.025-5.065 5.878-4.164 9.514.869 3.507 4.238 5.286 7.608 5.56 3.536.288 7.016-.899 9.986-2.755 6.177-3.861 10.284-10.651 11.144-17.851.448-3.751-.008-7.792-1.709-11.197a10.96 10.96 0 0 0-4.026-4.488c-1.731-1.061-3.73-1.583-5.736-1.768-4.56-.42-8.942 1.146-13.268 2.344a36.801 36.801 0 0 1-6.765 1.292c-2.223.184-4.46.147-6.675-.109a32.921 32.921 0 0 1-6.468-1.436 25.89 25.89 0 0 1-5.872-2.655c-1.622-1.037-3.025-2.524-3.105-4.549-.086-2.196 1.02-4.25 2.074-6.101 2.08-3.658 4.65-7.235 5.192-11.516.475-3.745-1.032-7.437-3.634-10.108a13.66 13.66 0 0 0-10.096-4.19c-3.86.111-7.556 1.79-10.395 4.369a17.119 17.119 0 0 0-3.507 4.455c-.47.862.846 1.632 1.317.77l.003.002Z"/>
  </g>
  <defs>
    <clipPath id="a">
      <path fill="#fff" d="M0 0h267v179H0z"/>
    </clipPath>
  </defs>
</svg>
