<svg xmlns="http://www.w3.org/2000/svg" width="297" height="162" fill="none" viewBox="0 0 297 162">
  <g clip-path="url(#a)">
    <path fill="#064A95" d="M11.79 155.193c8.108 5.829 18.614 6.122 28.77 5.405 1.417-.099 2.826-.217 4.22-.343.009-.002.02-.001.029-.004.067-.006.134-.012.198-.016l.861-.081-.067.128-.212.399.228-.397c.023-.04.048-.08.07-.12 2.63-4.57 5.24-9.307 5.906-14.524.688-5.416-1.246-11.548-6.021-14.21a9.638 9.638 0 0 0-1.978-.827 10.674 10.674 0 0 0-.868-.219 10.345 10.345 0 0 0-9.937 3.191 10.3 10.3 0 0 0-2.075 10.211c-4.049-4.144-3.293-10.866-1.897-16.484 1.4-5.618 3.094-11.87.248-16.916-1.583-2.808-4.365-4.551-7.487-5.253a15.098 15.098 0 0 0-11.118 1.835c-5.97 3.755-9.037 10.875-10.032 17.849-1.603 11.223 1.945 23.748 11.163 30.376Z"/>
    <path fill="#fff" d="M14.408 137.202a25.536 25.536 0 0 0 1.769 7.208 22.197 22.197 0 0 0 3.454 5.632c2.914 3.498 6.767 6.129 10.951 7.881a41.097 41.097 0 0 0 9.977 2.676c1.418-.1 2.827-.217 4.222-.344.008-.002.019-.001.028-.003.067-.007.134-.013.198-.017l.861-.081-.067.129-.212.398.228-.397c.023-.04.048-.08.07-.12a22.63 22.63 0 0 1-5.591-9.13 22.596 22.596 0 0 1-.766-10.673 22.815 22.815 0 0 1 4.264-9.758 10.674 10.674 0 0 0-.868-.219 23.633 23.633 0 0 0-2.163 3.577 23.156 23.156 0 0 0-2.005 14.43 23.698 23.698 0 0 0 6.02 11.828c-.271-.019-.545-.041-.813-.066-5.069-.428-10.128-1.516-14.726-3.744a26.503 26.503 0 0 1-9.935-8.137c-2.785-3.833-4.012-8.443-4.223-13.129-.223-5.017.429-10.122 1.576-15.001a62.894 62.894 0 0 1 5.3-14.411.452.452 0 0 0-.18-.598.384.384 0 0 0-.287-.059.336.336 0 0 0-.221.19 63.608 63.608 0 0 0-5.842 16.652c-1.008 4.988-1.546 10.207-1.019 15.286Z"/>
    <path fill="#CBCBCB" d="M117.208 162H.307a.305.305 0 0 1-.307-.306c0-.081.032-.159.09-.217a.308.308 0 0 1 .217-.089h116.901a.31.31 0 0 1 .217.089.307.307 0 0 1-.217.523Z"/>
    <path fill="#FFB7B7" d="m82.116 79.765-5.286-25.85-2.322-19.095-5.144 3.322.71 21.041 8.212 21.8a2.852 2.852 0 0 0 1.737 4.072 2.867 2.867 0 0 0 3.037-.966 2.853 2.853 0 0 0-.944-4.324ZM32.678 81.764 34.14 55.42l-.485-19.228 6.801 2.54 1.135 20.92-4.947 22.761a2.853 2.853 0 0 1-1.125 4.28 2.867 2.867 0 0 1-3.146-.514 2.856 2.856 0 0 1 .304-4.415ZM46.922 158.355l3.474-.001 1.654-13.377h-5.13l.002 13.378Z"/>
    <path fill="#2F2E41" d="M46.035 157.222h6.844c1.157 0 2.266.458 3.084 1.275a4.347 4.347 0 0 1 1.277 3.077v.142H46.035v-4.494Z"/>
    <path fill="#FFB7B7" d="m60.083 156.82 3.434.53 3.683-12.968-5.068-.782-2.049 13.22Z"/>
    <path fill="#2F2E41" d="m59.38 155.565 6.764 1.045a4.362 4.362 0 0 1 2.852 1.73c.683.932.968 2.096.791 3.237l-.022.14-11.073-1.71.689-4.442ZM45.901 154.36l-.018-.097-12.58-67.885a25.6 25.6 0 0 1 2.27-16.036l7.615-15.2 22.72 3.073 2.68 19.35 9.556 36.915-.01.03-12.242 38.813-8.023.527 7.107-34.646-13.014-29.502.918 64.13-6.979.528Z"/>
    <path fill="#064A95" d="m66.436 60.692-.15-.235c-.027-.042-2.787-4.192-10.297-1.421-7.666 2.829-13.607-2.635-13.666-2.69l-.03-.028-1.736-15.446-2.05-12.538 6.525-1.143 3.208-1.92 12.755-.227 3.357 2.635 5.51.6.505 11.424-.003.012-3.928 20.977Z"/>
    <path fill="#064A95" d="M68.264 40.808v-9.783l1.55-2.823.062-.002a4.65 4.65 0 0 1 3.21 1.456c1.559 1.58 2.265 4.214 2.099 7.827l-.003.066-6.918 3.259ZM41.254 39.744l-7.899-.946-.006-.09c-.27-3.932.418-6.85 2.043-8.673 1.475-1.656 3.165-1.756 3.237-1.76l.045-.002 2.139 1.94.44 9.531Z"/>
    <path fill="#2F2E41" d="M64.118 21.102H43.334a1.616 1.616 0 0 1-1.612-1.61v-7.51a11.97 11.97 0 0 1 3.516-8.473A12.016 12.016 0 0 1 53.726 0c3.184 0 6.237 1.262 8.489 3.51a11.97 11.97 0 0 1 3.516 8.471v7.511a1.61 1.61 0 0 1-1.613 1.61Z"/>
    <path fill="#FFB7B7" d="M61.93 16.456c2.332-4.256.765-9.594-3.5-11.92-4.266-2.328-9.613-.763-11.945 3.493-2.331 4.257-.764 9.595 3.501 11.922 4.266 2.327 9.613.762 11.945-3.495Z"/>
    <path fill="#2F2E41" d="M62.574 12.518h-11.62a.899.899 0 0 1-.889-.784l-.15-1.201a.537.537 0 0 0-1.02-.16l-.762 1.629a.9.9 0 0 1-.812.515h-1.765a.896.896 0 0 1-.892-.979l.696-7.255a.9.9 0 0 1 .512-.728c5.322-2.48 10.718-2.477 16.04.009a.897.897 0 0 1 .506.686l1.043 7.246a.893.893 0 0 1-.887 1.021Z"/>
    <path fill="#3F3D56" d="m82.144 81.416-.434-.433 18.858-18.822h36.546l18.438-18.783h36.074l18.2-18.307h84.72v.613h-84.465l-18.2 18.306H155.81l-18.439 18.783h-36.548l-18.68 18.643Z"/>
    <path fill="#fff" d="M156.166 55.123c6.27 0 11.353-5.073 11.353-11.331 0-6.258-5.083-11.331-11.353-11.331s-11.353 5.073-11.353 11.33c0 6.259 5.083 11.332 11.353 11.332Z"/>
    <path fill="#064A95" d="M210.168 28.48a3.065 3.065 0 0 0 3.068-3.062 3.065 3.065 0 0 0-3.068-3.063 3.065 3.065 0 0 0-3.068 3.063 3.065 3.065 0 0 0 3.068 3.062ZM293.932 28.48A3.065 3.065 0 0 0 297 25.418a3.065 3.065 0 0 0-3.068-3.063 3.066 3.066 0 0 0-3.069 3.063 3.066 3.066 0 0 0 3.069 3.062ZM252.203 28.48a3.065 3.065 0 0 0 3.068-3.062 3.065 3.065 0 0 0-3.068-3.063 3.065 3.065 0 0 0-3.068 3.063 3.065 3.065 0 0 0 3.068 3.062Z"/>
    <path fill="#3F3D56" d="M156.166 55.43c-2.306 0-4.56-.683-6.477-1.962a11.619 11.619 0 0 1-1.767-17.905 11.679 11.679 0 0 1 12.706-2.523 11.652 11.652 0 0 1 5.233 4.287 11.622 11.622 0 0 1 1.965 6.465 11.64 11.64 0 0 1-3.419 8.225 11.686 11.686 0 0 1-8.241 3.412Zm0-22.662c-2.184 0-4.32.646-6.136 1.858a11.007 11.007 0 0 0-1.674 16.962 11.054 11.054 0 0 0 12.037 2.39 11.033 11.033 0 0 0 6.819-10.186A11.024 11.024 0 0 0 163.973 36a11.068 11.068 0 0 0-7.807-3.232Z"/>
    <path fill="#064A95" d="M156.166 51.888c4.48 0 8.111-3.625 8.111-8.096s-3.631-8.096-8.111-8.096-8.111 3.625-8.111 8.096 3.631 8.096 8.111 8.096Z"/>
    <path fill="#fff" d="m155.393 47.21-2.427-3.116 1.412-1.096 1.149 1.476 3.883-4.092 1.299 1.228-5.316 5.6ZM100.324 73.803c6.27 0 11.353-5.073 11.353-11.33 0-6.258-5.083-11.331-11.353-11.331s-11.352 5.073-11.352 11.33c0 6.258 5.082 11.331 11.352 11.331Z"/>
    <path fill="#3F3D56" d="M100.323 74.11c-2.305 0-4.56-.683-6.477-1.961a11.641 11.641 0 0 1-4.294-5.223 11.616 11.616 0 0 1 2.527-12.682 11.678 11.678 0 0 1 12.706-2.523 11.652 11.652 0 0 1 5.233 4.287 11.622 11.622 0 0 1 1.965 6.465 11.64 11.64 0 0 1-3.419 8.225 11.684 11.684 0 0 1-8.241 3.412Zm0-22.662c-2.184 0-4.32.647-6.136 1.858a11.03 11.03 0 0 0-4.069 4.948 11.005 11.005 0 0 0 2.395 12.015 11.068 11.068 0 0 0 12.038 2.39 11.045 11.045 0 0 0 4.957-4.061 11.015 11.015 0 0 0 1.861-6.125 11.024 11.024 0 0 0-3.239-7.792 11.067 11.067 0 0 0-7.807-3.233Z"/>
    <path fill="#064A95" d="M100.324 70.569c4.48 0 8.112-3.625 8.112-8.096s-3.632-8.096-8.112-8.096-8.111 3.625-8.111 8.096 3.632 8.096 8.111 8.096Z"/>
    <path fill="#fff" d="m99.55 65.89-2.427-3.115 1.412-1.096 1.15 1.475 3.883-4.092 1.298 1.229-5.315 5.6Z"/>
  </g>
  <defs>
    <clipPath id="a">
      <path fill="#fff" d="M0 0h297v162H0z"/>
    </clipPath>
  </defs>
</svg>
