<svg xmlns="http://www.w3.org/2000/svg" width="190" height="158" fill="none" viewBox="0 0 190 158">
  <g clip-path="url(#a)">
    <path fill="#2F2E41" d="m67.71 143.023-.364 5.098v2.912s-.728 7.646 6.192 6.918c6.92-.728 1.093-11.651 1.093-11.651l-.728-2.184-6.193-1.093ZM76.816 131.737s-2.186.728-1.457 5.461c0 0 1.82 1.457 3.642 2.185a6.133 6.133 0 0 1 1.847 1.251 14.281 14.281 0 0 0 6.78 3.611c1.727.368 3.313.326 3.757-.857 1.093-2.913-4.37-5.461-4.37-5.461l-4.372-4.733-5.827-1.457Z"/>
    <path fill="#FBBEBE" d="M100.127 82.951s6.556 8.738 3.278 9.102c-3.278.364-5.828-7.645-5.828-7.645l2.55-1.457Z"/>
    <path fill="#2F2E41" d="m70.989 77.49-.729 25.486s-1.457 4.733-1.093 6.917c0 0-.617 2.469-.715 3.429a2.178 2.178 0 0 0-.013.212c0 .728-2.914 13.107-1.093 21.845 0 0-1.821 6.917.364 8.738l6.92.364-.363-13.471 3.642-20.389 1.821-5.461s-2.914 15.291-2.185 20.389c0 0-1.457 4.369-1.093 6.917 0 0 .364 3.277 6.556 1.092l1.093-5.825 8.86-45.665-8.496-3.85-13.477-.728Z"/>
    <path fill="#FBBEBE" d="M87.379 37.805a6.555 6.555 0 0 0 6.556-6.553 6.555 6.555 0 0 0-6.556-6.554 6.555 6.555 0 0 0-6.557 6.554 6.555 6.555 0 0 0 6.556 6.553Z"/>
    <path fill="#FBBEBE" d="m81.733 32.162-2.55 5.461 6.557 4.37 3.278-5.826-7.285-4.005Z"/>
    <path fill="#D0CDE1" d="m87.014 41.446-.105-1.533s-4.809-1.985-6.905-4.049l-1.731 1.213-10.199 4.733 3.643 38.228s6.556-.728 10.562 3.641c4.007 4.369 10.927-1.82 10.927-1.82V71.3l-1.82-12.014 1.82-13.107-6.192-4.733Z"/>
    <path fill="#D0CDE1" d="m90.657 45.815 2.55.364s1.07 2.14.739 9.244l-.01.222c-.365 7.282 1.092 9.83 1.092 9.83l6.192 18.205-4.007 2.184-5.828-11.286-4.006-23.301 3.278-5.462Z"/>
    <path fill="#2F2E41" d="M94.728 27.51a3.735 3.735 0 0 0-.172-1.338c-.338-.922-1.228-1.509-2.072-2.011-1.185-.705-2.414-1.384-3.76-1.682-1.347-.298-2.845-.17-3.966.632-.722.517-1.236 1.268-1.714 2.015a11.248 11.248 0 0 0-1.312 2.557.353.353 0 0 0-.02.221c.034.07.088.129.155.168.9.672 1.576.968.959 1.906 1.49-1.537 2.55-1.968 4.04-3.504-.175.162.087.451.324.44.238-.01.46-.156.697-.135.345.03.552.381.81.614.256.232.793.262.837-.082l.906 1.224a1.04 1.04 0 0 0 .458-.334l.977 1.476.411-.44c.182.278.347.568.492.868.764-.633.997.935.997 1.306.83-.123.944-3.227.953-3.9Z"/>
    <path fill="#FBBEBE" d="M77.18 80.767s6.557 8.737 3.279 9.102c-3.279.364-5.828-7.646-5.828-7.646l2.55-1.456Z"/>
    <path fill="#D0CDE1" d="m69.53 42.175-1.456-.364s-4.007 5.46-4.735 11.286c-.729 5.825-1.457 13.107-1.457 13.107L74.266 83.68l4.37-3.277-9.47-16.384 3.279-4.733-2.914-17.111Z"/>
    <path fill="#000" d="m70.774 66.8 7.68 13.42-6.92-14.563-.76 1.143Z" opacity=".1"/>
    <path fill="#3F3D56" d="M190 145.06h-.389V5.049H44.877V4.66H190v140.4Z"/>
    <path fill="#3F3D56" d="M142.403.776h-41.381v8.35h41.381V.777ZM67.607.776h-15.93v8.35h15.93V.777Z"/>
    <path fill="#F2F2F2" d="M36.718 47.188a4.856 4.856 0 1 0 0-9.71 4.856 4.856 0 1 0 0 9.71ZM36.718 83.89c5.043 0 9.13-4.086 9.13-9.126 0-5.041-4.087-9.127-9.13-9.127-5.043 0-9.131 4.086-9.131 9.127 0 5.04 4.088 9.127 9.13 9.127ZM36.718 121.951c6.76 0 12.24-5.477 12.24-12.234 0-6.756-5.48-12.234-12.24-12.234s-12.24 5.478-12.24 12.234c0 6.757 5.48 12.234 12.24 12.234Z"/>
    <path fill="#D0CDE1" d="M41.575 117.097a1.943 1.943 0 1 0 0-3.885 1.943 1.943 0 0 0 0 3.885ZM33.803 112.048a1.166 1.166 0 1 0 0-2.331 1.166 1.166 0 0 0 0 2.331ZM36.717 105.834a1.165 1.165 0 1 0 .002-2.33 1.165 1.165 0 0 0-.002 2.33Z"/>
    <path fill="#2F2E41" d="M60.902 89.832a2.332 2.332 0 0 1-1.649-3.979 2.332 2.332 0 0 1 3.98 1.648 2.332 2.332 0 0 1-2.331 2.33Zm0-4.273a1.944 1.944 0 0 0-1.906 2.321 1.941 1.941 0 0 0 3.52.7 1.94 1.94 0 0 0-1.614-3.02Z"/>
    <path fill="#3F3D56" d="M52.515 29.495H48.68V25.66h3.835v3.834Zm-3.54-.295h3.245v-3.244h-3.245V29.2Z"/>
    <path fill="#2F2E41" d="m13.98 57.668-2.617-2.803 2.805-2.615 2.616 2.803-2.805 2.615Zm-2.2-2.789 2.214 2.372 2.373-2.212-2.214-2.372-2.373 2.212Z"/>
    <path fill="#064A95" d="M84.12 9.71a4.856 4.856 0 1 0-4.856-4.855A4.856 4.856 0 0 0 84.12 9.71Z"/>
    <path fill="#3F3D56" d="M84.12 14.953H0v.389h84.12v-.389Z"/>
    <path fill="#064A95" d="M14.96 20.002a4.856 4.856 0 1 0 0-9.71 4.856 4.856 0 1 0 0 9.71ZM148.753 69.29h-47.597v33.207h47.597V69.29Z"/>
    <path fill="#3F3D56" d="M153.415 95.7H105.43V62.105h47.985V95.7Zm-47.597-.388h47.209V62.494h-47.209v32.818Z"/>
  </g>
  <defs>
    <clipPath id="a">
      <path fill="#fff" d="M0 0h190v158H0z"/>
    </clipPath>
  </defs>
</svg>
